<?xml version="1.0" encoding="utf-8"?>
<!-- Generator: Adobe Illustrator 23.0.3, SVG Export Plug-In . SVG Version: 6.00 Build 0)  -->
<svg version="1.1" id="Layer_1" xmlns="http://www.w3.org/2000/svg" xmlns:xlink="http://www.w3.org/1999/xlink" x="0px" y="0px"
	 viewBox="0 0 84 156" style="enable-background:new 0 0 84 156;" xml:space="preserve">
<style type="text/css">
	.st0{fill:#FFFFFF;}
	.st1{opacity:0.42;}
	.st2{clip-path:url(#SVGID_2_);fill:#FFFFFF;}
	.st3{fill:#9175A9;}
</style>
<g id="Artwork_9_1_">
	<g>
		<path class="st0" d="M31.98,66.53c1.71,0,3.18,0.61,4.39,1.83c1.21,1.21,1.81,2.67,1.81,4.38c0,1.71-0.6,3.17-1.81,4.38
			c-1.22,1.22-2.68,1.83-4.39,1.83c-1.71,0-3.17-0.61-4.38-1.83c-1.21-1.21-1.81-2.66-1.81-4.38c0-1.71,0.6-3.17,1.81-4.38
			C28.81,67.14,30.27,66.53,31.98,66.53 M31.98,67.85c-1.36,0-2.51,0.47-3.46,1.42c-0.95,0.96-1.42,2.12-1.42,3.46
			c0,1.32,0.47,2.47,1.42,3.45c0.95,0.95,2.1,1.42,3.46,1.42c1.37,0,2.52-0.47,3.46-1.42c0.96-0.96,1.44-2.11,1.44-3.45
			c0-1.35-0.48-2.5-1.44-3.46C34.51,68.33,33.35,67.85,31.98,67.85"/>
		<path class="st0" d="M44.88,67.85h-0.86c-0.77,0-1.44,0.28-1.99,0.83c-0.54,0.54-0.81,1.19-0.81,1.97v8.12h-1.32v-8.12
			c0-1.13,0.4-2.09,1.19-2.88c0.82-0.82,1.79-1.23,2.92-1.23h0.86V67.85z"/>
		<path class="st0" d="M52.79,66.53c1.71,0,3.18,0.61,4.39,1.83c1.21,1.19,1.81,2.65,1.81,4.38v6.03h-1.32v-1.95
			c0-0.01-0.02-0.04-0.07-0.09c-0.05-0.01-0.08,0-0.11,0.04c-1.28,1.45-2.85,2.18-4.71,2.18c-1.71,0-3.17-0.61-4.38-1.83
			c-1.21-1.21-1.81-2.66-1.81-4.38c0-1.71,0.6-3.17,1.81-4.38C49.62,67.14,51.08,66.53,52.79,66.53 M52.79,67.85
			c-1.36,0-2.51,0.47-3.46,1.42c-0.95,0.96-1.42,2.12-1.42,3.46c0,1.32,0.47,2.47,1.42,3.45c0.95,0.95,2.1,1.42,3.46,1.42
			c1.38,0,2.53-0.47,3.44-1.42c0.96-0.96,1.44-2.11,1.44-3.45c0-1.35-0.48-2.5-1.44-3.46C55.29,68.33,54.14,67.85,52.79,67.85"/>
		<g class="st1">
			<g>
				<defs>
					<rect id="SVGID_1_" x="25.83" y="27.14" width="32.32" height="32.32"/>
				</defs>
				<clipPath id="SVGID_2_">
					<use xlink:href="#SVGID_1_"  style="overflow:visible;"/>
				</clipPath>
				<path class="st2" d="M42.01,59.45c-0.2,0-0.42,0-0.66-0.01l-0.09,0c-0.2-0.01-0.41-0.02-0.63-0.04l-0.11-0.01
					c-0.21-0.02-0.42-0.04-0.62-0.07l-0.09-0.01c-0.23-0.03-0.44-0.06-0.64-0.1l-0.03-0.01c-0.2-0.04-0.41-0.08-0.62-0.12
					l-0.06-0.01c-0.19-0.04-0.39-0.09-0.61-0.15l-0.1-0.03c-0.2-0.05-0.4-0.11-0.59-0.17l-0.09-0.03c-0.22-0.07-0.42-0.14-0.61-0.21
					l-0.07-0.03l0,0c-0.22-0.08-0.43-0.16-0.62-0.25c-0.19-0.08-0.4-0.17-0.63-0.28l-0.05-0.03c-0.03-0.02-0.07-0.03-0.1-0.05
					c-0.15-0.07-0.31-0.16-0.5-0.26c-0.09-0.05-0.17-0.09-0.26-0.14l-0.06-0.03c-1.18-0.65-2.27-1.45-3.25-2.37l-0.09-0.08
					c-0.08-0.08-0.17-0.16-0.25-0.24c-0.16-0.16-0.31-0.32-0.48-0.51c-0.07-0.07-0.13-0.15-0.2-0.22l-0.1-0.12
					c-0.05-0.06-0.1-0.11-0.15-0.17c-0.11-0.12-0.21-0.25-0.31-0.38c-0.04-0.05-0.08-0.1-0.11-0.14c-0.11-0.14-0.22-0.29-0.32-0.43
					l-0.07-0.09l0,0c-0.69-0.97-1.27-2.01-1.74-3.1c-0.05-0.12-0.1-0.24-0.15-0.37c-0.01-0.03-0.02-0.05-0.03-0.08l-0.04-0.1
					c-0.02-0.06-0.05-0.12-0.07-0.19l-0.05-0.14c-0.03-0.08-0.06-0.16-0.08-0.24l-0.02-0.06c-0.2-0.6-0.37-1.21-0.49-1.82
					l-0.01-0.05l0,0c-0.21-1.04-0.31-2.11-0.31-3.2c0-0.13,0-0.27,0-0.4c0-0.04,0-0.07,0-0.11l0-0.12c0-0.06,0-0.12,0.01-0.18
					c0-0.04,0-0.07,0.01-0.11l0.01-0.11c0-0.06,0.01-0.12,0.01-0.18l0.01-0.16c0.01-0.08,0.01-0.16,0.02-0.24l0.01-0.09
					c0.01-0.1,0.02-0.21,0.03-0.31l0.01-0.04c0.05-0.37,0.1-0.74,0.17-1.09l0.01-0.02c0.21-1.06,0.53-2.11,0.95-3.1
					c0.83-1.97,2-3.72,3.47-5.19c0.18-0.18,0.37-0.36,0.56-0.54c0.96-0.87,2.03-1.63,3.19-2.25c0.46-0.25,0.94-0.48,1.44-0.69
					c0.64-0.27,1.31-0.5,1.98-0.69c0.02-0.01,0.04-0.01,0.06-0.02l0.05-0.01c0.1-0.03,0.21-0.05,0.31-0.08
					c0.06-0.02,0.12-0.03,0.18-0.04c0.12-0.03,0.23-0.05,0.35-0.08l0.11-0.02c0.15-0.03,0.3-0.06,0.46-0.08l0.15-0.02
					c0.12-0.02,0.23-0.04,0.35-0.05l0.15-0.02c0.16-0.02,0.31-0.04,0.47-0.05l0.01,0c0.16-0.02,0.33-0.03,0.49-0.04L41,27.17
					c0.12-0.01,0.25-0.01,0.37-0.02l0.22-0.01c0.3-0.01,0.6-0.01,0.9,0l0.14,0c0.12,0,0.25,0.01,0.37,0.02l0.13,0.01
					c0.32,0.02,0.65,0.05,0.97,0.1l0.14,0.02c0.11,0.02,0.23,0.03,0.34,0.05l0.03,0c0.04,0.01,0.08,0.01,0.13,0.02
					c0.14,0.02,0.28,0.05,0.42,0.08l0.12,0.03c0.12,0.03,0.25,0.05,0.37,0.08c0.05,0.01,0.1,0.02,0.14,0.03l0.03,0.01
					c0.1,0.02,0.2,0.05,0.3,0.08l0.12,0.03c0.67,0.18,1.34,0.42,1.98,0.69c1.96,0.83,3.69,2,5.16,3.47
					c1.47,1.47,2.64,3.22,3.47,5.19c0.13,0.31,0.26,0.64,0.37,0.97l0.02,0.05c0.07,0.19,0.13,0.39,0.19,0.58l0.02,0.08
					c0.12,0.39,0.22,0.79,0.3,1.19l0.02,0.09c0.04,0.19,0.08,0.39,0.11,0.58l0.01,0.09c0.06,0.4,0.12,0.81,0.15,1.22l0.01,0.1
					c0.02,0.19,0.03,0.39,0.04,0.59l0,0.11c0.01,0.24,0.01,0.43,0.01,0.61c0,0.57-0.03,1.14-0.09,1.71l-0.01,0.14
					c-0.02,0.15-0.04,0.3-0.06,0.45l-0.01,0.09c-0.03,0.17-0.05,0.34-0.08,0.5l-0.02,0.12c-0.03,0.14-0.05,0.28-0.08,0.42
					l-0.02,0.11c-0.04,0.17-0.08,0.33-0.12,0.5l-0.02,0.08c-0.04,0.14-0.08,0.29-0.12,0.43l-0.03,0.11
					c-0.05,0.17-0.1,0.33-0.16,0.49l-0.02,0.05c-0.05,0.15-0.1,0.29-0.16,0.44l-0.05,0.12c-0.06,0.16-0.13,0.32-0.19,0.48
					c-0.83,1.96-2,3.69-3.47,5.16c-0.16,0.16-0.33,0.32-0.47,0.45l-0.01,0.01c-0.08,0.08-0.17,0.15-0.25,0.22l-0.08,0.07
					c-0.11,0.1-0.22,0.2-0.34,0.29c-0.03,0.02-0.06,0.05-0.09,0.07c-0.02,0.02-0.05,0.04-0.07,0.05l-0.03,0.02
					c-0.15,0.12-0.31,0.24-0.46,0.36c-0.03,0.02-0.04,0.03-0.06,0.04l-0.1,0.07c-0.17,0.12-0.32,0.23-0.47,0.33l-0.08,0.05
					c-0.02,0.01-0.04,0.03-0.06,0.04l-0.07,0.05c-0.15,0.09-0.29,0.19-0.44,0.28l-0.06,0.03c-0.03,0.02-0.07,0.04-0.1,0.06
					l-0.15,0.09c-0.12,0.07-0.24,0.14-0.36,0.2l-0.04,0.02c-0.06,0.03-0.12,0.06-0.18,0.09l-0.22,0.11
					c-0.08,0.04-0.17,0.09-0.25,0.13l-0.02,0.01c-0.17,0.08-0.33,0.15-0.52,0.24c-0.03,0.01-0.05,0.02-0.08,0.04
					c-0.03,0.02-0.07,0.03-0.1,0.04c-0.24,0.1-0.49,0.2-0.74,0.29l-0.04,0.01c-0.19,0.07-0.37,0.13-0.57,0.19l-0.11,0.04
					c-0.17,0.05-0.35,0.11-0.55,0.16l-0.14,0.04c-0.19,0.05-0.38,0.1-0.56,0.14l-0.13,0.03c-0.22,0.05-0.41,0.09-0.59,0.12
					l-0.04,0.01c-0.19,0.03-0.38,0.06-0.59,0.09l-0.16,0.02c-0.13,0.02-0.27,0.03-0.4,0.04c-0.03,0-0.06,0.01-0.09,0.01l-0.18,0.02
					c-0.18,0.01-0.36,0.03-0.54,0.04l-0.17,0.01C42.42,59.45,42.21,59.45,42.01,59.45 M39.21,59.03c0.19,0.03,0.4,0.07,0.63,0.1
					l0.09,0.01c0.2,0.03,0.4,0.05,0.61,0.07l0.11,0.01c0.21,0.02,0.42,0.03,0.62,0.04l0.09,0c0.24,0.01,0.45,0.01,0.65,0.01
					c0.2,0,0.4,0,0.64-0.01l0.1,0c0.19-0.01,0.4-0.02,0.6-0.04l0.12-0.01c0.21-0.02,0.41-0.04,0.59-0.06l0.1-0.01
					c0.2-0.03,0.39-0.06,0.57-0.09l0.06-0.01c0.17-0.03,0.36-0.07,0.58-0.11l0.13-0.03c0.18-0.04,0.36-0.08,0.55-0.13l0.14-0.04
					c0.2-0.05,0.38-0.11,0.54-0.16l0.1-0.03c0.18-0.06,0.36-0.12,0.53-0.18l0.01,0l0-0.02c0-0.07,0-0.15,0-0.22
					c0-0.83-0.1-1.65-0.29-2.44c-1.61-0.16-3.18-0.55-4.65-1.18c-0.22-0.09-0.43-0.19-0.6-0.27l-0.09,0.04
					c-0.09,0.04-0.17,0.08-0.26,0.12c-1.37,0.58-2.82,0.97-4.32,1.15c-0.28,0.91-0.48,1.86-0.59,2.8c0.17,0.06,0.36,0.13,0.56,0.19
					l0.09,0.03c0.19,0.06,0.38,0.12,0.58,0.17l0.1,0.03c0.22,0.06,0.41,0.11,0.6,0.15l0.08,0.02c0.22,0.05,0.42,0.09,0.61,0.12
					l0.01,0.06L39.21,59.03z M36.43,58.35C36.43,58.35,36.43,58.35,36.43,58.35l0.01-0.02L36.43,58.35z M47.27,55.69
					c0.19,0.79,0.28,1.6,0.28,2.42c0,0.06,0,0.11,0,0.17c0.21-0.08,0.42-0.16,0.63-0.25c0.23-0.1,0.46-0.2,0.69-0.31
					c0.07-0.04,0.14-0.07,0.22-0.11l0.28-0.14c0.06-0.03,0.11-0.06,0.17-0.09c0.12-0.06,0.23-0.13,0.35-0.2l0.23-0.13
					c0.02-0.01,0.04-0.02,0.06-0.03c0.15-0.09,0.3-0.19,0.45-0.28l0.06-0.04c0.03-0.02,0.06-0.04,0.09-0.05l0.05,0.03l-0.03-0.04
					c0.14-0.09,0.29-0.19,0.48-0.33l0.06-0.04c0.02-0.02,0.05-0.03,0.07-0.05c0.15-0.11,0.3-0.23,0.48-0.37l0.1-0.08
					c0.15-0.12,0.3-0.25,0.48-0.4l0.08-0.07C50.85,55.7,49.08,55.84,47.27,55.69 M34.29,57.29c0.09,0.05,0.17,0.09,0.25,0.13
					c0.16,0.08,0.33,0.17,0.51,0.26c0.03,0.01,0.06,0.03,0.09,0.04l0.06,0.03c0.25,0.12,0.44,0.2,0.62,0.28
					c0.12,0.05,0.24,0.1,0.37,0.15c0.07,0.03,0.14,0.05,0.21,0.08c0.11-0.91,0.3-1.83,0.56-2.71c-0.57,0.06-1.15,0.09-1.72,0.09
					c-0.46,0-0.94-0.02-1.42-0.06C33.94,56.16,34.1,56.74,34.29,57.29 M31.28,55.15c0.84,0.76,1.78,1.43,2.78,2.01
					c-0.17-0.53-0.32-1.06-0.43-1.6C32.83,55.48,32.05,55.34,31.28,55.15 M50.88,56.7l0.02,0.01L50.88,56.7
					C50.88,56.69,50.88,56.7,50.88,56.7 M47.22,55.5c1.92,0.17,3.82,0.01,5.6-0.47l0.06-0.06c0.04-0.04,0.09-0.08,0.13-0.12
					l0.04-0.03c-0.21-0.99-0.51-1.96-0.91-2.89c-0.71-1.68-1.67-3.2-2.85-4.52c-0.73,1.29-1.62,2.47-2.65,3.5
					c-0.36,0.36-0.74,0.7-1.13,1.03c0.5,0.68,0.93,1.42,1.26,2.21C46.95,54.58,47.1,55.04,47.22,55.5 M42.04,54.12
					c0.15,0.07,0.3,0.14,0.45,0.2c1.44,0.61,2.97,1,4.54,1.16c-0.12-0.44-0.26-0.86-0.43-1.27c-0.33-0.77-0.74-1.5-1.23-2.17
					C44.36,52.86,43.24,53.56,42.04,54.12 M33.78,55.39c0.49,0.04,0.98,0.07,1.46,0.07c0.59,0,1.19-0.03,1.78-0.1
					c0.15-0.49,0.33-0.97,0.52-1.42c0.26-0.61,0.57-1.23,0.92-1.84c-0.43-0.35-0.84-0.72-1.21-1.09c-0.8-0.8-1.53-1.71-2.16-2.69
					c-0.42,0.1-0.84,0.24-1.25,0.39c-0.25,1.13-0.37,2.29-0.37,3.46C33.46,53.27,33.57,54.35,33.78,55.39 M31,54.89
					c0.83,0.23,1.7,0.39,2.59,0.48c-0.21-1.04-0.31-2.11-0.31-3.19c0-1.14,0.12-2.28,0.35-3.39c-0.02,0.01-0.04,0.02-0.07,0.03
					c-1.22,0.52-2.29,1.25-3.2,2.16c-0.49,0.5-0.94,1.06-1.32,1.66l0,0.01c0.1,0.14,0.21,0.28,0.32,0.42
					c0.04,0.05,0.07,0.1,0.11,0.14c0.1,0.12,0.2,0.25,0.3,0.37c0.06,0.07,0.12,0.14,0.18,0.21L30,53.86
					c0.07,0.08,0.14,0.16,0.21,0.23c0.18,0.19,0.33,0.35,0.48,0.5c0.08,0.08,0.16,0.15,0.24,0.23L31,54.89z M38.59,52.22
					c-0.34,0.59-0.64,1.2-0.89,1.8c-0.18,0.42-0.34,0.86-0.49,1.32c1.45-0.18,2.86-0.56,4.19-1.12c0.07-0.03,0.13-0.06,0.2-0.09
					l0.01-0.01C40.54,53.6,39.52,52.96,38.59,52.22 M49.38,47.24c1.22,1.34,2.2,2.9,2.93,4.61c0.38,0.91,0.68,1.86,0.89,2.82
					l0.01-0.01c0.19-0.98,0.28-2,0.28-3.03c0-2.16-0.42-4.24-1.24-6.19c-0.17-0.4-0.36-0.8-0.58-1.22
					c-0.34,0.02-0.69,0.04-1.03,0.08c-0.15,0.49-0.33,0.97-0.53,1.43C49.9,46.24,49.66,46.74,49.38,47.24 M51.87,44.22
					c0.21,0.4,0.39,0.78,0.55,1.16c0.83,1.97,1.26,4.08,1.26,6.26c0,0.94-0.08,1.89-0.24,2.8c1.38-1.42,2.49-3.09,3.29-4.95
					c0.07-0.16,0.13-0.31,0.19-0.47l0.05-0.12c0.05-0.14,0.1-0.28,0.15-0.43l0.02-0.06c0.06-0.16,0.11-0.32,0.16-0.49l0.03-0.1
					c0.04-0.14,0.08-0.28,0.12-0.42l0.02-0.09c0.04-0.16,0.08-0.33,0.12-0.49l0.02-0.1c0.03-0.14,0.06-0.28,0.08-0.41l0.02-0.12
					c0.03-0.17,0.06-0.33,0.08-0.5l0.01-0.06c0.02-0.15,0.04-0.31,0.06-0.46l0-0.02c-1.71-0.62-3.53-0.94-5.4-0.94
					C52.28,44.21,52.08,44.21,51.87,44.22 M38.68,52.06c0.96,0.77,2.02,1.43,3.14,1.96c1.24-0.57,2.4-1.28,3.43-2.12
					c-0.26-0.33-0.52-0.64-0.8-0.92c-0.91-0.91-1.98-1.64-3.19-2.16c-0.02-0.01-0.03-0.01-0.05-0.02l-0.01,0l-0.03,0.02
					c-0.02,0.02-0.04,0.04-0.06,0.05C40.2,49.82,39.37,50.89,38.68,52.06 M26.34,46.57c0.1,0.47,0.22,0.95,0.36,1.4l0.01,0.03
					c0.03,0.1,0.06,0.19,0.09,0.29l0.03,0.09c0.02,0.07,0.05,0.14,0.07,0.21l0.06,0.16c0.02,0.06,0.05,0.12,0.07,0.18l0.04,0.1
					c0.01,0.03,0.02,0.05,0.03,0.08c0.05,0.12,0.1,0.24,0.15,0.36c0.1,0.24,0.21,0.48,0.33,0.72c0.38,0.79,0.83,1.56,1.35,2.29
					c0.39-0.6,0.82-1.14,1.31-1.63c0.92-0.93,2.02-1.67,3.26-2.2c0.04-0.02,0.09-0.04,0.13-0.05l0.05-0.02
					c0.14-0.61,0.31-1.21,0.53-1.81c-0.18-0.35-0.31-0.65-0.44-0.93c-0.42-0.98-0.74-2.01-0.95-3.06c-0.54,0.16-1.07,0.35-1.58,0.57
					C29.4,44.14,27.75,45.22,26.34,46.57 M35.27,48.28c0.62,0.95,1.32,1.83,2.1,2.6c0.36,0.36,0.76,0.72,1.17,1.06
					c0.69-1.18,1.52-2.25,2.47-3.19c0.01-0.01,0.02-0.02,0.03-0.02c-1.14-0.45-2.36-0.69-3.61-0.69
					C36.7,48.05,35.97,48.13,35.27,48.28 M41.36,48.67c1.22,0.53,2.31,1.26,3.23,2.19c0.28,0.28,0.55,0.6,0.81,0.93
					c0.39-0.32,0.76-0.66,1.12-1.01c1.03-1.03,1.92-2.21,2.65-3.51c-0.16-0.18-0.31-0.33-0.45-0.47c-0.56-0.56-1.19-1.1-1.85-1.58
					c-0.22,0.08-0.41,0.16-0.59,0.24C44.42,46.23,42.77,47.31,41.36,48.67 M37.42,47.87c1.3,0,2.57,0.25,3.75,0.73
					c1.44-1.4,3.13-2.51,5.02-3.31c0.15-0.06,0.31-0.13,0.49-0.2c-0.96-0.68-2-1.26-3.08-1.73c-1.93-0.82-4.01-1.24-6.17-1.24
					c-0.14,0-0.28,0-0.42,0.01c-0.94,1.16-1.71,2.47-2.31,3.87c-0.1,0.25-0.21,0.51-0.3,0.78c0.23,0.46,0.49,0.92,0.77,1.35
					C35.9,47.95,36.67,47.87,37.42,47.87 M34.31,47.01c-0.17,0.5-0.32,1-0.44,1.51c0.36-0.14,0.73-0.25,1.1-0.34
					C34.74,47.79,34.52,47.4,34.31,47.01 M47.06,45.14c0.63,0.47,1.23,0.98,1.77,1.53c0.13,0.13,0.26,0.26,0.42,0.44
					c0.26-0.47,0.49-0.95,0.69-1.43c0.19-0.43,0.35-0.89,0.5-1.34C49.29,44.47,48.15,44.75,47.06,45.14 M32.99,42.74
					c0.21,1.05,0.52,2.07,0.94,3.04c0.1,0.24,0.22,0.49,0.35,0.77c0.08-0.21,0.16-0.42,0.25-0.62c0.58-1.37,1.33-2.65,2.24-3.79
					C35.48,42.18,34.21,42.39,32.99,42.74 M26.3,40.23c-0.05,0.24-0.09,0.46-0.12,0.68c-0.02,0.12-0.03,0.24-0.05,0.36l-0.01,0.05
					c-0.01,0.1-0.02,0.2-0.03,0.31l-0.01,0.09c-0.01,0.08-0.01,0.16-0.02,0.23l-0.01,0.17c0,0.06-0.01,0.12-0.01,0.18l-0.01,0.12
					c0,0.03,0,0.06-0.01,0.1c0,0.06,0,0.13-0.01,0.19l0,0.11c0,0.03,0,0.06,0,0.1c0,0.13,0,0.27,0,0.4c0,1.03,0.1,2.06,0.29,3.05
					c1.41-1.33,3.05-2.4,4.87-3.17c0.52-0.22,1.06-0.42,1.61-0.58c-0.18-0.98-0.28-1.99-0.28-3c0-1.11,0.11-2.21,0.33-3.27
					c-0.51,0.16-1.01,0.34-1.49,0.54C29.44,37.69,27.74,38.82,26.3,40.23 M37.43,41.94c2.18,0,4.28,0.42,6.24,1.26
					c1.14,0.49,2.22,1.1,3.21,1.82c1.16-0.43,2.38-0.72,3.62-0.87c0.13-0.43,0.25-0.88,0.34-1.33c-0.6-0.91-1.28-1.75-2.03-2.5
					c-1.33-1.33-2.9-2.42-4.66-3.23c-0.31,0.11-0.61,0.23-0.89,0.35c-1.95,0.83-3.68,1.98-5.13,3.44c-0.34,0.34-0.67,0.7-0.98,1.07
					C37.25,41.94,37.34,41.94,37.43,41.94 M52.46,44.03c1.88,0,3.71,0.32,5.42,0.94c0.06-0.55,0.08-1.1,0.08-1.65
					c0-0.18,0-0.37-0.01-0.6l0-0.11c-0.01-0.2-0.02-0.39-0.04-0.58l-0.01-0.1c-0.03-0.4-0.08-0.8-0.15-1.19l-0.02-0.1
					c-0.03-0.19-0.07-0.38-0.11-0.57l-0.02-0.09c-0.04-0.21-0.09-0.4-0.13-0.58c-0.05-0.19-0.1-0.38-0.16-0.59l-0.03-0.09
					c-0.06-0.2-0.12-0.39-0.18-0.57c-0.49-0.27-0.99-0.51-1.49-0.72c-1.45-0.62-2.99-1.01-4.58-1.16c0.21,1.06,0.32,2.15,0.32,3.24
					c0,1.11-0.11,2.21-0.33,3.28c0.27,0.41,0.52,0.83,0.74,1.26C52.02,44.03,52.24,44.03,52.46,44.03 M50.99,43.03
					c-0.08,0.37-0.18,0.74-0.29,1.09c0.3-0.03,0.6-0.06,0.88-0.07C51.4,43.71,51.2,43.37,50.99,43.03 M44.41,37
					c1.71,0.81,3.24,1.88,4.54,3.19c0.72,0.72,1.38,1.52,1.95,2.38c0.19-1,0.29-2.03,0.29-3.06c0-1.1-0.11-2.19-0.33-3.26
					c-0.47-0.04-0.94-0.06-1.4-0.06C47.72,36.19,46.02,36.46,44.41,37 M33.03,36.28c-0.23,1.09-0.35,2.21-0.35,3.33
					c0,0.99,0.09,1.99,0.27,2.95c1.28-0.37,2.61-0.58,3.96-0.62c0.35-0.43,0.71-0.83,1.09-1.21c1.47-1.47,3.22-2.64,5.19-3.47
					c0.23-0.1,0.48-0.19,0.73-0.29c-0.07-0.03-0.14-0.07-0.21-0.1c-1.93-0.82-4.01-1.24-6.17-1.24C36,35.64,34.48,35.85,33.03,36.28
					 M37.43,27.98c-0.55,0.16-1.09,0.36-1.61,0.58c-1.95,0.83-3.68,1.98-5.13,3.44c-0.54,0.54-1.05,1.13-1.51,1.75
					c-0.76,1.03-1.41,2.17-1.93,3.38c-0.38,0.9-0.68,1.84-0.89,2.8c1.42-1.35,3.07-2.43,4.91-3.21c0.52-0.22,1.05-0.41,1.6-0.58
					c0.21-0.96,0.51-1.89,0.88-2.79c0.83-1.97,2-3.72,3.47-5.19C37.3,28.1,37.36,28.04,37.43,27.98 M57.18,38.12l-0.02,0.01
					L57.18,38.12C57.18,38.12,57.18,38.12,57.18,38.12 M57.21,38.09L57.21,38.09l0.02-0.01L57.21,38.09z M51.01,36.08
					c1.63,0.15,3.2,0.55,4.69,1.18c0.44,0.19,0.88,0.4,1.33,0.64c-0.1-0.27-0.2-0.53-0.3-0.78c-0.82-1.95-1.98-3.68-3.44-5.13
					c-1.45-1.45-3.17-2.61-5.11-3.44c-0.53-0.22-1.07-0.42-1.62-0.58c0.03,0.03,0.05,0.05,0.08,0.08c1.47,1.47,2.64,3.22,3.47,5.19
					C50.5,34.15,50.8,35.11,51.01,36.08 M37.54,35.46c2.18,0,4.28,0.42,6.24,1.26c0.1,0.04,0.19,0.09,0.29,0.13l0.1,0.04
					c1.69-0.59,3.47-0.88,5.29-0.88c0.45,0,0.91,0.02,1.36,0.06c-0.21-0.94-0.5-1.87-0.87-2.75c-0.82-1.95-1.98-3.68-3.44-5.13
					c-0.09-0.09-0.18-0.17-0.27-0.25l-0.06-0.06l-0.09-0.02c-0.1-0.03-0.2-0.05-0.3-0.08l-0.02-0.01c-0.05-0.01-0.1-0.02-0.15-0.04
					c-0.13-0.03-0.26-0.06-0.39-0.08l-0.11-0.02c-0.14-0.03-0.27-0.05-0.41-0.08l-0.15-0.02c-0.11-0.02-0.23-0.04-0.34-0.05
					l-0.14-0.02c-0.32-0.04-0.64-0.07-0.96-0.09L43,27.35c-0.12-0.01-0.24-0.01-0.37-0.02l-0.14,0c-0.32-0.01-0.65-0.01-0.97,0
					l-0.14,0c-0.12,0-0.25,0.01-0.37,0.02l-0.13,0.01c-0.16,0.01-0.32,0.02-0.49,0.04c-0.16,0.02-0.32,0.03-0.48,0.05l-0.14,0.02
					c-0.12,0.02-0.23,0.03-0.34,0.05l-0.15,0.02c-0.15,0.03-0.3,0.05-0.45,0.08l-0.1,0.02c-0.12,0.03-0.24,0.05-0.36,0.08
					c-0.06,0.01-0.11,0.03-0.17,0.04c-0.11,0.03-0.21,0.05-0.31,0.08l-0.09,0.02c-0.14,0.13-0.29,0.27-0.44,0.42
					c-1.45,1.45-2.61,3.18-3.44,5.13c-0.36,0.85-0.65,1.75-0.85,2.66C34.52,35.67,36.02,35.46,37.54,35.46 M40.37,27.27l0,0.02
					c0,0,0,0,0,0L40.37,27.27z"/>
			</g>
		</g>
		<path class="st3" d="M38.66,52.4c-0.06,0-0.13-0.02-0.18-0.06c-1.66-1.28-2.86-2.58-3.67-3.98c-0.05-0.08-0.05-0.18-0.01-0.26
			c0.04-0.08,0.11-0.15,0.2-0.17c2.44-0.54,4.49-0.2,6.11,0.45c0.01-0.01,0.02-0.02,0.04-0.03l0.05,0.07
			c2.26,0.93,3.67,2.48,4.16,3.07c0.65-0.55,2.57-2.27,3.51-4.25c-6.47-6.77-15.8-4.38-15.89-4.35c-0.08,0.02-0.16,0.01-0.23-0.03
			c-0.07-0.04-0.12-0.11-0.13-0.19c-0.03-0.14-0.69-3.39,0.06-6.54c0.02-0.1,0.11-0.19,0.21-0.21c4.85-1.24,8.63-0.52,11.36,0.7
			c0.23-0.1,2.42-1,6.61-0.8c0.12,0.01,0.23,0.09,0.26,0.2c1.09,3.53,0.02,6.68-0.03,6.81c-0.04,0.11-0.13,0.18-0.25,0.19
			c-0.11,0.01-0.22-0.05-0.28-0.15c-0.01-0.02-1.36-2.41-4.19-4.39c-2.58-1.8-6.95-3.6-13.19-2.06c-0.54,2.44-0.21,4.99-0.07,5.83
			c0.75-0.16,2.82-0.53,5.44-0.33c3.01,0.23,7.34,1.3,10.84,5.06c0.08,0.08,0.1,0.21,0.05,0.31c-1.14,2.6-3.87,4.74-3.98,4.83
			c-0.06,0.05-0.14,0.07-0.22,0.06c-0.08-0.01-0.15-0.06-0.19-0.12c-0.02-0.03-1.35-1.9-3.86-3.01c-1.4,1.28-2.29,3.16-2.3,3.18
			c-0.04,0.08-0.11,0.14-0.19,0.16C38.71,52.39,38.69,52.4,38.66,52.4 M35.53,48.42c0.72,1.13,1.71,2.19,3.03,3.25
			c0.31-0.58,1.04-1.83,2.07-2.85C39.25,48.3,37.54,48.05,35.53,48.42 M45,36.97c0.66,0.34,1.24,0.7,1.76,1.06
			c2.11,1.48,3.4,3.14,3.98,4c0.24-1.04,0.59-3.25-0.09-5.64C47.74,36.27,45.85,36.71,45,36.97"/>
		<path class="st0" d="M38.66,52.4c-0.06,0-0.13-0.02-0.18-0.06c-1.66-1.28-2.86-2.58-3.67-3.98c-0.05-0.08-0.05-0.18-0.01-0.26
			c0.04-0.08,0.11-0.15,0.2-0.17c2.44-0.54,4.49-0.2,6.11,0.45c0.01-0.01,0.02-0.02,0.04-0.03l0.05,0.07
			c2.26,0.93,3.67,2.48,4.16,3.07c0.65-0.55,2.57-2.27,3.51-4.25c-6.47-6.77-15.8-4.38-15.89-4.35c-0.08,0.02-0.16,0.01-0.23-0.03
			c-0.07-0.04-0.12-0.11-0.13-0.19c-0.03-0.14-0.69-3.39,0.06-6.54c0.02-0.1,0.11-0.19,0.21-0.21c4.85-1.24,8.63-0.52,11.36,0.7
			c0.23-0.1,2.42-1,6.61-0.8c0.12,0.01,0.23,0.09,0.26,0.2c1.09,3.53,0.02,6.68-0.03,6.81c-0.04,0.11-0.13,0.18-0.25,0.19
			c-0.11,0.01-0.22-0.05-0.28-0.15c-0.01-0.02-1.36-2.41-4.19-4.39c-2.58-1.8-6.95-3.6-13.19-2.06c-0.54,2.44-0.21,4.99-0.07,5.83
			c0.75-0.16,2.82-0.53,5.44-0.33c3.01,0.23,7.34,1.3,10.84,5.06c0.08,0.08,0.1,0.21,0.05,0.31c-1.14,2.6-3.87,4.74-3.98,4.83
			c-0.06,0.05-0.14,0.07-0.22,0.06c-0.08-0.01-0.15-0.06-0.19-0.12c-0.02-0.03-1.35-1.9-3.86-3.01c-1.4,1.28-2.29,3.16-2.3,3.18
			c-0.04,0.08-0.11,0.14-0.19,0.16C38.71,52.39,38.69,52.4,38.66,52.4 M35.53,48.42c0.72,1.13,1.71,2.19,3.03,3.25
			c0.31-0.58,1.04-1.83,2.07-2.85C39.25,48.3,37.54,48.05,35.53,48.42 M45,36.97c0.66,0.34,1.24,0.7,1.76,1.06
			c2.11,1.48,3.4,3.14,3.98,4c0.24-1.04,0.59-3.25-0.09-5.64C47.74,36.27,45.85,36.71,45,36.97"/>
		<path class="st0" d="M25.36,83.03h1.24c0.25,0,0.47,0.03,0.66,0.09c0.19,0.06,0.35,0.13,0.49,0.23c0.14,0.1,0.25,0.2,0.34,0.33
			c0.09,0.12,0.16,0.25,0.22,0.38c0.05,0.13,0.09,0.26,0.12,0.39c0.02,0.13,0.04,0.25,0.04,0.36c0,0.23-0.04,0.45-0.13,0.66
			c-0.08,0.21-0.21,0.4-0.37,0.57c-0.16,0.17-0.37,0.3-0.61,0.4c-0.24,0.1-0.52,0.15-0.84,0.15h-1.16V83.03z M25.84,86.12h0.61
			c0.2,0,0.4-0.03,0.58-0.08c0.18-0.05,0.34-0.14,0.48-0.25c0.14-0.11,0.25-0.25,0.33-0.41s0.12-0.36,0.12-0.58
			c0-0.11-0.02-0.25-0.06-0.4c-0.04-0.15-0.11-0.3-0.21-0.43c-0.1-0.14-0.24-0.25-0.42-0.35c-0.18-0.09-0.41-0.14-0.7-0.14h-0.72
			V86.12z"/>
		<path class="st0" d="M25.36,83.03h1.24c0.25,0,0.47,0.03,0.66,0.09c0.19,0.06,0.35,0.13,0.49,0.23c0.14,0.1,0.25,0.2,0.34,0.33
			c0.09,0.12,0.16,0.25,0.22,0.38c0.05,0.13,0.09,0.26,0.12,0.39c0.02,0.13,0.04,0.25,0.04,0.36c0,0.23-0.04,0.45-0.13,0.66
			c-0.08,0.21-0.21,0.4-0.37,0.57c-0.16,0.17-0.37,0.3-0.61,0.4c-0.24,0.1-0.52,0.15-0.84,0.15h-1.16V83.03z M25.84,86.12h0.61
			c0.2,0,0.4-0.03,0.58-0.08c0.18-0.05,0.34-0.14,0.48-0.25c0.14-0.11,0.25-0.25,0.33-0.41s0.12-0.36,0.12-0.58
			c0-0.11-0.02-0.25-0.06-0.4c-0.04-0.15-0.11-0.3-0.21-0.43c-0.1-0.14-0.24-0.25-0.42-0.35c-0.18-0.09-0.41-0.14-0.7-0.14h-0.72
			V86.12z"/>
		<path class="st0" d="M29.38,85.55c0,0.1,0.02,0.2,0.07,0.28c0.05,0.09,0.1,0.16,0.18,0.22c0.07,0.06,0.16,0.11,0.26,0.14
			c0.1,0.03,0.2,0.05,0.3,0.05c0.14,0,0.26-0.03,0.37-0.1c0.1-0.06,0.2-0.15,0.29-0.26l0.34,0.26c-0.25,0.32-0.6,0.49-1.05,0.49
			c-0.19,0-0.36-0.03-0.51-0.1c-0.15-0.06-0.28-0.15-0.39-0.26c-0.11-0.11-0.19-0.24-0.24-0.4c-0.06-0.15-0.09-0.32-0.09-0.49
			c0-0.18,0.03-0.34,0.09-0.49c0.06-0.15,0.15-0.28,0.26-0.39c0.11-0.11,0.24-0.2,0.39-0.26c0.15-0.06,0.31-0.1,0.49-0.1
			c0.21,0,0.39,0.04,0.53,0.11c0.14,0.07,0.26,0.17,0.36,0.29c0.09,0.12,0.16,0.25,0.2,0.4c0.04,0.15,0.06,0.3,0.06,0.45v0.16H29.38
			z M30.8,85.19c0-0.1-0.02-0.19-0.05-0.28c-0.03-0.08-0.07-0.16-0.13-0.22c-0.06-0.06-0.13-0.11-0.21-0.15
			c-0.09-0.03-0.18-0.05-0.3-0.05c-0.11,0-0.21,0.02-0.3,0.06c-0.09,0.04-0.17,0.1-0.23,0.16c-0.06,0.07-0.11,0.14-0.15,0.22
			c-0.03,0.08-0.05,0.16-0.05,0.24H30.8z"/>
		<path class="st0" d="M29.38,85.55c0,0.1,0.02,0.2,0.07,0.28c0.05,0.09,0.1,0.16,0.18,0.22c0.07,0.06,0.16,0.11,0.26,0.14
			c0.1,0.03,0.2,0.05,0.3,0.05c0.14,0,0.26-0.03,0.37-0.1c0.1-0.06,0.2-0.15,0.29-0.26l0.34,0.26c-0.25,0.32-0.6,0.49-1.05,0.49
			c-0.19,0-0.36-0.03-0.51-0.1c-0.15-0.06-0.28-0.15-0.39-0.26c-0.11-0.11-0.19-0.24-0.24-0.4c-0.06-0.15-0.09-0.32-0.09-0.49
			c0-0.18,0.03-0.34,0.09-0.49c0.06-0.15,0.15-0.28,0.26-0.39c0.11-0.11,0.24-0.2,0.39-0.26c0.15-0.06,0.31-0.1,0.49-0.1
			c0.21,0,0.39,0.04,0.53,0.11c0.14,0.07,0.26,0.17,0.36,0.29c0.09,0.12,0.16,0.25,0.2,0.4c0.04,0.15,0.06,0.3,0.06,0.45v0.16H29.38
			z M30.8,85.19c0-0.1-0.02-0.19-0.05-0.28c-0.03-0.08-0.07-0.16-0.13-0.22c-0.06-0.06-0.13-0.11-0.21-0.15
			c-0.09-0.03-0.18-0.05-0.3-0.05c-0.11,0-0.21,0.02-0.3,0.06c-0.09,0.04-0.17,0.1-0.23,0.16c-0.06,0.07-0.11,0.14-0.15,0.22
			c-0.03,0.08-0.05,0.16-0.05,0.24H30.8z"/>
		<path class="st0" d="M31.82,84.2h0.45v0.37h0.01c0.06-0.13,0.16-0.23,0.3-0.31c0.14-0.08,0.3-0.12,0.49-0.12
			c0.11,0,0.22,0.02,0.33,0.05c0.11,0.04,0.2,0.09,0.28,0.16c0.08,0.07,0.14,0.17,0.19,0.28c0.05,0.12,0.07,0.25,0.07,0.41v1.53
			h-0.45v-1.4c0-0.11-0.02-0.2-0.05-0.28c-0.03-0.08-0.07-0.14-0.12-0.19c-0.05-0.05-0.11-0.08-0.17-0.11
			c-0.06-0.02-0.13-0.03-0.2-0.03c-0.09,0-0.18,0.02-0.26,0.05s-0.15,0.08-0.21,0.14c-0.06,0.06-0.11,0.15-0.14,0.25
			s-0.05,0.22-0.05,0.36v1.22h-0.45V84.2z"/>
		<path class="st0" d="M31.82,84.2h0.45v0.37h0.01c0.06-0.13,0.16-0.23,0.3-0.31c0.14-0.08,0.3-0.12,0.49-0.12
			c0.11,0,0.22,0.02,0.33,0.05c0.11,0.04,0.2,0.09,0.28,0.16c0.08,0.07,0.14,0.17,0.19,0.28c0.05,0.12,0.07,0.25,0.07,0.41v1.53
			h-0.45v-1.4c0-0.11-0.02-0.2-0.05-0.28c-0.03-0.08-0.07-0.14-0.12-0.19c-0.05-0.05-0.11-0.08-0.17-0.11
			c-0.06-0.02-0.13-0.03-0.2-0.03c-0.09,0-0.18,0.02-0.26,0.05s-0.15,0.08-0.21,0.14c-0.06,0.06-0.11,0.15-0.14,0.25
			s-0.05,0.22-0.05,0.36v1.22h-0.45V84.2z"/>
		<path class="st0" d="M35.87,84.59h-0.65v1.08c0,0.07,0,0.13,0.01,0.2c0,0.07,0.02,0.12,0.04,0.18c0.02,0.05,0.05,0.09,0.1,0.13
			c0.05,0.03,0.11,0.05,0.2,0.05c0.05,0,0.11,0,0.17-0.01c0.06-0.01,0.11-0.03,0.16-0.06v0.41c-0.05,0.03-0.12,0.05-0.21,0.06
			c-0.08,0.01-0.15,0.02-0.2,0.02c-0.17,0-0.31-0.02-0.4-0.07c-0.1-0.05-0.17-0.11-0.21-0.19c-0.05-0.08-0.07-0.16-0.08-0.26
			c-0.01-0.09-0.01-0.19-0.01-0.29v-1.24h-0.52V84.2h0.52v-0.67h0.45v0.67h0.65V84.59z"/>
		<path class="st0" d="M35.87,84.59h-0.65v1.08c0,0.07,0,0.13,0.01,0.2c0,0.07,0.02,0.12,0.04,0.18c0.02,0.05,0.05,0.09,0.1,0.13
			c0.05,0.03,0.11,0.05,0.2,0.05c0.05,0,0.11,0,0.17-0.01c0.06-0.01,0.11-0.03,0.16-0.06v0.41c-0.05,0.03-0.12,0.05-0.21,0.06
			c-0.08,0.01-0.15,0.02-0.2,0.02c-0.17,0-0.31-0.02-0.4-0.07c-0.1-0.05-0.17-0.11-0.21-0.19c-0.05-0.08-0.07-0.16-0.08-0.26
			c-0.01-0.09-0.01-0.19-0.01-0.29v-1.24h-0.52V84.2h0.52v-0.67h0.45v0.67h0.65V84.59z"/>
		<path class="st0" d="M36.46,84.49c0.13-0.12,0.27-0.2,0.44-0.26c0.17-0.06,0.33-0.09,0.5-0.09c0.17,0,0.32,0.02,0.45,0.07
			c0.12,0.04,0.23,0.1,0.31,0.18c0.08,0.07,0.14,0.16,0.18,0.25c0.04,0.1,0.06,0.19,0.06,0.3v1.21c0,0.08,0,0.16,0.01,0.23
			c0,0.07,0.01,0.14,0.02,0.2h-0.4c-0.01-0.12-0.02-0.24-0.02-0.36h-0.01c-0.1,0.15-0.22,0.26-0.36,0.33
			c-0.14,0.06-0.3,0.1-0.48,0.1c-0.11,0-0.22-0.01-0.32-0.05c-0.1-0.03-0.19-0.08-0.26-0.14c-0.08-0.06-0.13-0.13-0.18-0.22
			c-0.04-0.09-0.07-0.19-0.07-0.31c0-0.15,0.03-0.28,0.1-0.39c0.07-0.1,0.16-0.19,0.28-0.25c0.12-0.06,0.26-0.11,0.42-0.14
			c0.16-0.03,0.33-0.04,0.51-0.04h0.33V85c0-0.06-0.01-0.12-0.04-0.18c-0.02-0.06-0.06-0.11-0.11-0.16
			c-0.05-0.05-0.11-0.09-0.18-0.11c-0.07-0.03-0.15-0.04-0.25-0.04c-0.09,0-0.16,0.01-0.23,0.02c-0.07,0.02-0.12,0.04-0.18,0.06
			c-0.05,0.02-0.1,0.05-0.15,0.09c-0.04,0.03-0.09,0.07-0.13,0.1L36.46,84.49z M37.73,85.43c-0.11,0-0.22,0.01-0.33,0.02
			c-0.11,0.01-0.21,0.03-0.31,0.07c-0.09,0.03-0.17,0.08-0.23,0.14c-0.06,0.06-0.09,0.14-0.09,0.23c0,0.14,0.05,0.24,0.14,0.3
			c0.09,0.06,0.22,0.09,0.37,0.09c0.12,0,0.23-0.02,0.32-0.06c0.09-0.04,0.16-0.1,0.21-0.16c0.05-0.07,0.09-0.14,0.12-0.22
			c0.02-0.08,0.04-0.16,0.04-0.24v-0.15H37.73z"/>
		<path class="st0" d="M36.46,84.49c0.13-0.12,0.27-0.2,0.44-0.26c0.17-0.06,0.33-0.09,0.5-0.09c0.17,0,0.32,0.02,0.45,0.07
			c0.12,0.04,0.23,0.1,0.31,0.18c0.08,0.07,0.14,0.16,0.18,0.25c0.04,0.1,0.06,0.19,0.06,0.3v1.21c0,0.08,0,0.16,0.01,0.23
			c0,0.07,0.01,0.14,0.02,0.2h-0.4c-0.01-0.12-0.02-0.24-0.02-0.36h-0.01c-0.1,0.15-0.22,0.26-0.36,0.33
			c-0.14,0.06-0.3,0.1-0.48,0.1c-0.11,0-0.22-0.01-0.32-0.05c-0.1-0.03-0.19-0.08-0.26-0.14c-0.08-0.06-0.13-0.13-0.18-0.22
			c-0.04-0.09-0.07-0.19-0.07-0.31c0-0.15,0.03-0.28,0.1-0.39c0.07-0.1,0.16-0.19,0.28-0.25c0.12-0.06,0.26-0.11,0.42-0.14
			c0.16-0.03,0.33-0.04,0.51-0.04h0.33V85c0-0.06-0.01-0.12-0.04-0.18c-0.02-0.06-0.06-0.11-0.11-0.16
			c-0.05-0.05-0.11-0.09-0.18-0.11c-0.07-0.03-0.15-0.04-0.25-0.04c-0.09,0-0.16,0.01-0.23,0.02c-0.07,0.02-0.12,0.04-0.18,0.06
			c-0.05,0.02-0.1,0.05-0.15,0.09c-0.04,0.03-0.09,0.07-0.13,0.1L36.46,84.49z M37.73,85.43c-0.11,0-0.22,0.01-0.33,0.02
			c-0.11,0.01-0.21,0.03-0.31,0.07c-0.09,0.03-0.17,0.08-0.23,0.14c-0.06,0.06-0.09,0.14-0.09,0.23c0,0.14,0.05,0.24,0.14,0.3
			c0.09,0.06,0.22,0.09,0.37,0.09c0.12,0,0.23-0.02,0.32-0.06c0.09-0.04,0.16-0.1,0.21-0.16c0.05-0.07,0.09-0.14,0.12-0.22
			c0.02-0.08,0.04-0.16,0.04-0.24v-0.15H37.73z"/>
		<rect x="39.08" y="82.79" class="st0" width="0.45" height="3.78"/>
		<rect x="39.08" y="82.79" class="st0" width="0.45" height="3.78"/>
		<rect x="41.75" y="83.03" class="st0" width="0.48" height="3.54"/>
		<rect x="41.75" y="83.03" class="st0" width="0.48" height="3.54"/>
		<path class="st0" d="M43.03,84.2h0.42v0.37h0.01c0.01-0.03,0.04-0.08,0.08-0.13c0.04-0.05,0.1-0.1,0.16-0.14
			c0.06-0.05,0.14-0.08,0.23-0.12c0.09-0.03,0.19-0.05,0.29-0.05c0.18,0,0.33,0.04,0.45,0.11c0.12,0.07,0.22,0.18,0.3,0.33
			c0.08-0.15,0.19-0.26,0.33-0.33c0.14-0.07,0.28-0.11,0.43-0.11c0.18,0,0.33,0.03,0.45,0.09c0.12,0.06,0.21,0.14,0.28,0.24
			c0.07,0.1,0.11,0.21,0.14,0.33c0.03,0.13,0.04,0.25,0.04,0.39v1.38h-0.45v-1.32c0-0.09-0.01-0.18-0.02-0.26
			c-0.01-0.08-0.04-0.16-0.07-0.22c-0.04-0.06-0.09-0.11-0.16-0.15c-0.07-0.04-0.16-0.06-0.27-0.06c-0.22,0-0.37,0.07-0.47,0.2
			c-0.09,0.13-0.14,0.31-0.14,0.52v1.3h-0.45v-1.24c0-0.11-0.01-0.22-0.02-0.31c-0.01-0.09-0.04-0.17-0.07-0.24
			c-0.03-0.07-0.09-0.12-0.15-0.16c-0.06-0.04-0.15-0.06-0.26-0.06c-0.08,0-0.16,0.02-0.23,0.05c-0.08,0.03-0.14,0.08-0.2,0.14
			c-0.06,0.06-0.1,0.14-0.14,0.24c-0.03,0.1-0.05,0.21-0.05,0.35v1.23h-0.45V84.2z"/>
		<path class="st0" d="M43.03,84.2h0.42v0.37h0.01c0.01-0.03,0.04-0.08,0.08-0.13c0.04-0.05,0.1-0.1,0.16-0.14
			c0.06-0.05,0.14-0.08,0.23-0.12c0.09-0.03,0.19-0.05,0.29-0.05c0.18,0,0.33,0.04,0.45,0.11c0.12,0.07,0.22,0.18,0.3,0.33
			c0.08-0.15,0.19-0.26,0.33-0.33c0.14-0.07,0.28-0.11,0.43-0.11c0.18,0,0.33,0.03,0.45,0.09c0.12,0.06,0.21,0.14,0.28,0.24
			c0.07,0.1,0.11,0.21,0.14,0.33c0.03,0.13,0.04,0.25,0.04,0.39v1.38h-0.45v-1.32c0-0.09-0.01-0.18-0.02-0.26
			c-0.01-0.08-0.04-0.16-0.07-0.22c-0.04-0.06-0.09-0.11-0.16-0.15c-0.07-0.04-0.16-0.06-0.27-0.06c-0.22,0-0.37,0.07-0.47,0.2
			c-0.09,0.13-0.14,0.31-0.14,0.52v1.3h-0.45v-1.24c0-0.11-0.01-0.22-0.02-0.31c-0.01-0.09-0.04-0.17-0.07-0.24
			c-0.03-0.07-0.09-0.12-0.15-0.16c-0.06-0.04-0.15-0.06-0.26-0.06c-0.08,0-0.16,0.02-0.23,0.05c-0.08,0.03-0.14,0.08-0.2,0.14
			c-0.06,0.06-0.1,0.14-0.14,0.24c-0.03,0.1-0.05,0.21-0.05,0.35v1.23h-0.45V84.2z"/>
		<path class="st0" d="M47.29,84.2h0.45v0.34h0.01c0.09-0.13,0.21-0.23,0.36-0.3c0.15-0.07,0.31-0.11,0.47-0.11
			c0.18,0,0.35,0.03,0.5,0.1c0.15,0.06,0.28,0.15,0.38,0.27s0.19,0.25,0.24,0.4c0.06,0.15,0.09,0.31,0.09,0.49
			c0,0.18-0.03,0.34-0.09,0.49c-0.06,0.15-0.14,0.28-0.24,0.4c-0.11,0.11-0.23,0.2-0.38,0.26c-0.15,0.06-0.31,0.1-0.5,0.1
			c-0.17,0-0.33-0.04-0.48-0.11c-0.15-0.07-0.27-0.17-0.35-0.29h-0.01v1.75h-0.45V84.2z M48.52,84.56c-0.12,0-0.23,0.02-0.33,0.06
			c-0.1,0.04-0.18,0.1-0.25,0.17c-0.07,0.07-0.12,0.16-0.16,0.26c-0.04,0.1-0.06,0.21-0.06,0.33c0,0.12,0.02,0.23,0.06,0.33
			c0.04,0.1,0.09,0.19,0.16,0.26c0.07,0.07,0.15,0.13,0.25,0.17c0.1,0.04,0.21,0.06,0.33,0.06c0.12,0,0.23-0.02,0.33-0.06
			c0.1-0.04,0.18-0.1,0.25-0.17c0.07-0.07,0.12-0.16,0.16-0.26c0.04-0.1,0.06-0.21,0.06-0.33c0-0.12-0.02-0.23-0.06-0.33
			c-0.04-0.1-0.09-0.19-0.16-0.26c-0.07-0.07-0.15-0.13-0.25-0.17C48.75,84.58,48.64,84.56,48.52,84.56"/>
		<path class="st0" d="M47.29,84.2h0.45v0.34h0.01c0.09-0.13,0.21-0.23,0.36-0.3c0.15-0.07,0.31-0.11,0.47-0.11
			c0.18,0,0.35,0.03,0.5,0.1c0.15,0.06,0.28,0.15,0.38,0.27s0.19,0.25,0.24,0.4c0.06,0.15,0.09,0.31,0.09,0.49
			c0,0.18-0.03,0.34-0.09,0.49c-0.06,0.15-0.14,0.28-0.24,0.4c-0.11,0.11-0.23,0.2-0.38,0.26c-0.15,0.06-0.31,0.1-0.5,0.1
			c-0.17,0-0.33-0.04-0.48-0.11c-0.15-0.07-0.27-0.17-0.35-0.29h-0.01v1.75h-0.45V84.2z M48.52,84.56c-0.12,0-0.23,0.02-0.33,0.06
			c-0.1,0.04-0.18,0.1-0.25,0.17c-0.07,0.07-0.12,0.16-0.16,0.26c-0.04,0.1-0.06,0.21-0.06,0.33c0,0.12,0.02,0.23,0.06,0.33
			c0.04,0.1,0.09,0.19,0.16,0.26c0.07,0.07,0.15,0.13,0.25,0.17c0.1,0.04,0.21,0.06,0.33,0.06c0.12,0,0.23-0.02,0.33-0.06
			c0.1-0.04,0.18-0.1,0.25-0.17c0.07-0.07,0.12-0.16,0.16-0.26c0.04-0.1,0.06-0.21,0.06-0.33c0-0.12-0.02-0.23-0.06-0.33
			c-0.04-0.1-0.09-0.19-0.16-0.26c-0.07-0.07-0.15-0.13-0.25-0.17C48.75,84.58,48.64,84.56,48.52,84.56z"/>
		<rect x="50.38" y="82.79" class="st0" width="0.45" height="3.78"/>
		<rect x="50.38" y="82.79" class="st0" width="0.45" height="3.78"/>
		<path class="st0" d="M51.56,84.49c0.13-0.12,0.27-0.2,0.44-0.26c0.17-0.06,0.33-0.09,0.5-0.09c0.17,0,0.32,0.02,0.45,0.07
			c0.12,0.04,0.23,0.1,0.31,0.18c0.08,0.07,0.14,0.16,0.18,0.25c0.04,0.1,0.06,0.19,0.06,0.3v1.21c0,0.08,0,0.16,0.01,0.23
			c0,0.07,0.01,0.14,0.02,0.2h-0.4c-0.01-0.12-0.02-0.24-0.02-0.36h-0.01c-0.1,0.15-0.22,0.26-0.36,0.33
			c-0.14,0.06-0.3,0.1-0.48,0.1c-0.11,0-0.22-0.01-0.32-0.05c-0.1-0.03-0.19-0.08-0.26-0.14c-0.08-0.06-0.13-0.13-0.18-0.22
			c-0.04-0.09-0.07-0.19-0.07-0.31c0-0.15,0.03-0.28,0.1-0.39c0.07-0.1,0.16-0.19,0.28-0.25c0.12-0.06,0.26-0.11,0.42-0.14
			c0.16-0.03,0.33-0.04,0.51-0.04h0.33V85c0-0.06-0.01-0.12-0.04-0.18c-0.02-0.06-0.06-0.11-0.11-0.16
			c-0.05-0.05-0.11-0.09-0.18-0.11c-0.07-0.03-0.15-0.04-0.25-0.04c-0.09,0-0.16,0.01-0.23,0.02c-0.07,0.02-0.12,0.04-0.18,0.06
			c-0.05,0.02-0.1,0.05-0.15,0.09c-0.04,0.03-0.09,0.07-0.13,0.1L51.56,84.49z M52.83,85.43c-0.11,0-0.22,0.01-0.33,0.02
			c-0.11,0.01-0.21,0.03-0.31,0.07c-0.09,0.03-0.17,0.08-0.23,0.14c-0.06,0.06-0.09,0.14-0.09,0.23c0,0.14,0.05,0.24,0.14,0.3
			c0.09,0.06,0.22,0.09,0.37,0.09c0.12,0,0.23-0.02,0.32-0.06c0.09-0.04,0.16-0.1,0.21-0.16c0.05-0.07,0.09-0.14,0.12-0.22
			c0.02-0.08,0.04-0.16,0.04-0.24v-0.15H52.83z"/>
		<path class="st0" d="M51.56,84.49c0.13-0.12,0.27-0.2,0.44-0.26c0.17-0.06,0.33-0.09,0.5-0.09c0.17,0,0.32,0.02,0.45,0.07
			c0.12,0.04,0.23,0.1,0.31,0.18c0.08,0.07,0.14,0.16,0.18,0.25c0.04,0.1,0.06,0.19,0.06,0.3v1.21c0,0.08,0,0.16,0.01,0.23
			c0,0.07,0.01,0.14,0.02,0.2h-0.4c-0.01-0.12-0.02-0.24-0.02-0.36h-0.01c-0.1,0.15-0.22,0.26-0.36,0.33
			c-0.14,0.06-0.3,0.1-0.48,0.1c-0.11,0-0.22-0.01-0.32-0.05c-0.1-0.03-0.19-0.08-0.26-0.14c-0.08-0.06-0.13-0.13-0.18-0.22
			c-0.04-0.09-0.07-0.19-0.07-0.31c0-0.15,0.03-0.28,0.1-0.39c0.07-0.1,0.16-0.19,0.28-0.25c0.12-0.06,0.26-0.11,0.42-0.14
			c0.16-0.03,0.33-0.04,0.51-0.04h0.33V85c0-0.06-0.01-0.12-0.04-0.18c-0.02-0.06-0.06-0.11-0.11-0.16
			c-0.05-0.05-0.11-0.09-0.18-0.11c-0.07-0.03-0.15-0.04-0.25-0.04c-0.09,0-0.16,0.01-0.23,0.02c-0.07,0.02-0.12,0.04-0.18,0.06
			c-0.05,0.02-0.1,0.05-0.15,0.09c-0.04,0.03-0.09,0.07-0.13,0.1L51.56,84.49z M52.83,85.43c-0.11,0-0.22,0.01-0.33,0.02
			c-0.11,0.01-0.21,0.03-0.31,0.07c-0.09,0.03-0.17,0.08-0.23,0.14c-0.06,0.06-0.09,0.14-0.09,0.23c0,0.14,0.05,0.24,0.14,0.3
			c0.09,0.06,0.22,0.09,0.37,0.09c0.12,0,0.23-0.02,0.32-0.06c0.09-0.04,0.16-0.1,0.21-0.16c0.05-0.07,0.09-0.14,0.12-0.22
			c0.02-0.08,0.04-0.16,0.04-0.24v-0.15H52.83z"/>
		<path class="st0" d="M54.14,84.2h0.45v0.37h0.01c0.06-0.13,0.16-0.23,0.3-0.31c0.14-0.08,0.3-0.12,0.49-0.12
			c0.11,0,0.22,0.02,0.33,0.05c0.11,0.04,0.2,0.09,0.28,0.16c0.08,0.07,0.14,0.17,0.19,0.28c0.05,0.12,0.07,0.25,0.07,0.41v1.53
			h-0.45v-1.4c0-0.11-0.02-0.2-0.05-0.28c-0.03-0.08-0.07-0.14-0.12-0.19c-0.05-0.05-0.11-0.08-0.17-0.11
			c-0.06-0.02-0.13-0.03-0.2-0.03c-0.09,0-0.18,0.02-0.26,0.05c-0.08,0.03-0.15,0.08-0.21,0.14c-0.06,0.06-0.11,0.15-0.14,0.25
			c-0.03,0.1-0.05,0.22-0.05,0.36v1.22h-0.45V84.2z"/>
		<path class="st0" d="M54.14,84.2h0.45v0.37h0.01c0.06-0.13,0.16-0.23,0.3-0.31c0.14-0.08,0.3-0.12,0.49-0.12
			c0.11,0,0.22,0.02,0.33,0.05c0.11,0.04,0.2,0.09,0.28,0.16c0.08,0.07,0.14,0.17,0.19,0.28c0.05,0.12,0.07,0.25,0.07,0.41v1.53
			h-0.45v-1.4c0-0.11-0.02-0.2-0.05-0.28c-0.03-0.08-0.07-0.14-0.12-0.19c-0.05-0.05-0.11-0.08-0.17-0.11
			c-0.06-0.02-0.13-0.03-0.2-0.03c-0.09,0-0.18,0.02-0.26,0.05c-0.08,0.03-0.15,0.08-0.21,0.14c-0.06,0.06-0.11,0.15-0.14,0.25
			c-0.03,0.1-0.05,0.22-0.05,0.36v1.22h-0.45V84.2z"/>
		<path class="st0" d="M58.19,84.59h-0.65v1.08c0,0.07,0,0.13,0.01,0.2c0,0.07,0.02,0.12,0.04,0.18c0.02,0.05,0.05,0.09,0.1,0.13
			c0.05,0.03,0.11,0.05,0.2,0.05c0.05,0,0.11,0,0.17-0.01c0.06-0.01,0.11-0.03,0.16-0.06v0.41c-0.05,0.03-0.12,0.05-0.21,0.06
			c-0.08,0.01-0.15,0.02-0.2,0.02c-0.17,0-0.31-0.02-0.4-0.07c-0.1-0.05-0.17-0.11-0.21-0.19c-0.05-0.08-0.07-0.16-0.08-0.26
			c-0.01-0.09-0.01-0.19-0.01-0.29v-1.24h-0.52V84.2h0.52v-0.67h0.45v0.67h0.65V84.59z"/>
		<path class="st0" d="M58.19,84.59h-0.65v1.08c0,0.07,0,0.13,0.01,0.2c0,0.07,0.02,0.12,0.04,0.18c0.02,0.05,0.05,0.09,0.1,0.13
			c0.05,0.03,0.11,0.05,0.2,0.05c0.05,0,0.11,0,0.17-0.01c0.06-0.01,0.11-0.03,0.16-0.06v0.41c-0.05,0.03-0.12,0.05-0.21,0.06
			c-0.08,0.01-0.15,0.02-0.2,0.02c-0.17,0-0.31-0.02-0.4-0.07c-0.1-0.05-0.17-0.11-0.21-0.19c-0.05-0.08-0.07-0.16-0.08-0.26
			c-0.01-0.09-0.01-0.19-0.01-0.29v-1.24h-0.52V84.2h0.52v-0.67h0.45v0.67h0.65V84.59z"/>
	</g>
</g>
</svg>
